<?xml version="1.0" encoding="utf-8"?>
<svg xmlns="http://www.w3.org/2000/svg" x="0" y="0" viewBox="0 0 128 128" width="512" height="512">
  <path fill="#fff" d="M114,4H34H24h-5C13.5,4,9,8.5,9,14v27.5c0,4.1,2,7.7,5,10V124h110V14C124,8.5,119.5,4,114,4z" />
  <path fill="#444b54" d="M109,112H53c-1.7,0-3-1.3-3-3V72c0-1.7,1.3-3,3-3h56c1.7,0,3,1.3,3,3v37C112,110.7,110.7,112,109,112z M56,106h50V75H56V106z" />
  <path fill="#c7c3f4" d="M46.5,54L46.5,54C39.6,54,34,48.4,34,41.5V4h25v37.5C59,48.4,53.4,54,46.5,54z" />
  <path fill="#c7c3f4" d="M96.5,54L96.5,54C89.6,54,84,48.4,84,41.5V4h15c5.5,0,10,4.5,10,10v27.5C109,48.4,103.4,54,96.5,54z" />
  <path fill="#444b54" d="M124,27c-1.7,0-3-1.3-3-3V14c0-1.7,1.3-3,3-3s3,1.3,3,3v10C127,25.7,125.7,27,124,27z" />
  <path fill="#444b54" d="M124,127H39c-1.7,0-3-1.3-3-3V75H17v49c0,1.7-1.3,3-3,3H4c-1.7,0-3-1.3-3-3s1.3-3,3-3h7V72c0-1.7,1.3-3,3-3 h25c1.7,0,3,1.3,3,3v49h79V44c0-1.7,1.3-3,3-3s3,1.3,3,3v80C127,125.7,125.7,127,124,127z" />
  <path fill="#444b54" d="M99,1H19C11.8,1,6,6.8,6,14v27.5C6,50,13,57,21.5,57c5.1,0,9.7-2.5,12.5-6.4c2.8,3.9,7.4,6.4,12.5,6.4 s9.7-2.5,12.5-6.4c2.8,3.9,7.4,6.4,12.5,6.4s9.7-2.5,12.5-6.4c2.8,3.9,7.4,6.4,12.5,6.4c8.5,0,15.5-7,15.5-15.5V14 C112,6.8,106.2,1,99,1z M21.5,51c-5.2,0-9.5-4.3-9.5-9.5V14c0-3.9,3.1-7,7-7h12v34.5C31,46.7,26.7,51,21.5,51z M46.5,51 c-5.2,0-9.5-4.3-9.5-9.5V7h19v34.5C56,46.7,51.7,51,46.5,51z M71.5,51c-5.2,0-9.5-4.3-9.5-9.5V7h19v34.5C81,46.7,76.7,51,71.5,51z M106,41.5c0,5.2-4.3,9.5-9.5,9.5S87,46.7,87,41.5V7h12c3.9,0,7,3.1,7,7V41.5z" />
</svg>